HIERARCHY
ROOT base
{
	OFFSET 0.000000 0.000000 0.000000
	CHANNELS 6 Xposition Yposition Zposition Xrotation Yrotation Zrotation
	JOINT arm.upper.left
	{
		OFFSET 0.000000 -0.095536 0.501822
		CHANNELS 3 Xrotation Yrotation Zrotation
		JOINT arm.lower.left
		{
			OFFSET 0.223613 0.093172 -0.100160
			CHANNELS 3 Xrotation Yrotation Zrotation
			End Site
			{
				OFFSET 0.000000 -0.347065 0.027952
			}
		}
	}
	JOINT arm.upper.right
	{
		OFFSET -0.000000 -0.095536 0.501822
		CHANNELS 3 Xrotation Yrotation Zrotation
		JOINT arm.lower.right
		{
			OFFSET -0.223613 0.093172 -0.100160
			CHANNELS 3 Xrotation Yrotation Zrotation
			End Site
			{
				OFFSET 0.000000 -0.347065 0.027952
			}
		}
	}
	JOINT upper.left.back.leg
	{
		OFFSET 0.102489 0.020929 0.331783
		CHANNELS 6 Xposition Yposition Zposition Xrotation Yrotation Zrotation
		JOINT lower.left.back.leg
		{
			OFFSET 0.181685 0.144416 -0.095501
			CHANNELS 3 Xrotation Yrotation Zrotation
			End Site
			{
				OFFSET -0.009317 0.004659 -0.235259
			}
		}
	}
	JOINT upper.left.fore.leg
	{
		OFFSET 0.102489 0.020929 0.331783
		CHANNELS 6 Xposition Yposition Zposition Xrotation Yrotation Zrotation
		JOINT lower.left.fore.leg
		{
			OFFSET 0.193332 -0.172368 -0.039598
			CHANNELS 3 Xrotation Yrotation Zrotation
			End Site
			{
				OFFSET 0.000000 0.002329 -0.291162
			}
		}
	}
	JOINT upper.right.back.leg
	{
		OFFSET -0.102489 0.020929 0.331783
		CHANNELS 6 Xposition Yposition Zposition Xrotation Yrotation Zrotation
		JOINT lower.right.back.leg
		{
			OFFSET -0.181685 0.144416 -0.095501
			CHANNELS 3 Xrotation Yrotation Zrotation
			End Site
			{
				OFFSET 0.009317 0.004659 -0.235259
			}
		}
	}
	JOINT upper.right.fore.leg
	{
		OFFSET -0.102489 0.020929 0.331783
		CHANNELS 6 Xposition Yposition Zposition Xrotation Yrotation Zrotation
		JOINT lower.right.fore.leg
		{
			OFFSET -0.193332 -0.172368 -0.039598
			CHANNELS 3 Xrotation Yrotation Zrotation
			End Site
			{
				OFFSET 0.000000 0.002329 -0.291162
			}
		}
	}
	JOINT torso
	{
		OFFSET 0.000000 -0.095536 0.501822
		CHANNELS 3 Xrotation Yrotation Zrotation
		JOINT head
		{
			OFFSET -0.000000 -0.158392 0.149075
			CHANNELS 3 Xrotation Yrotation Zrotation
			End Site
			{
				OFFSET -0.000000 -0.202649 -0.041927
			}
		}
	}
}
MOTION
Frames: 20
Frame Time: 0.041667
0.000000 0.000000 0.000000 -0.000000 0.000000 -0.000000 0.000002 -0.000002 -0.000002 -0.000000 0.000001 -0.000002 0.000002 0.000007 0.000001 -0.000000 -0.000000 -0.000000 0.102489 0.020929 0.331783 0.000003 -0.000004 -0.000001 -0.000001 0.000000 0.000002 0.102489 0.020929 0.331783 0.000001 -0.000000 0.000005 -0.000000 -0.000000 0.000000 -0.102489 0.020929 0.331783 -0.000000 0.000000 0.000002 0.000000 0.000001 -0.000001 -0.102489 0.020929 0.331783 0.000001 -0.000001 -0.000001 0.000000 -0.000001 -0.000001 -0.000002 -0.000000 0.000000 -0.000001 -0.000000 -0.000000 
0.000000 0.000000 0.000000 -0.000000 0.000000 -0.000000 -0.269133 -0.011331 -0.728108 0.252578 0.034187 0.475685 -0.267730 -0.006725 0.768282 0.241934 -0.026769 -0.386921 0.102489 0.020929 0.331783 0.000003 -0.000004 -0.000001 -0.000001 0.000000 0.000002 0.102489 0.020929 0.331783 0.000001 -0.000000 0.000005 -0.000000 -0.000000 0.000000 -0.102489 0.020929 0.331783 -0.000000 0.000000 0.000002 0.000000 0.000001 -0.000001 -0.102489 0.020929 0.331783 0.000001 -0.000001 -0.000001 0.000000 -0.000001 -0.000001 0.128331 0.000000 0.000000 -0.281367 0.000000 -0.000000 
0.000000 0.000000 0.000000 -0.000000 0.000000 -0.000000 -1.079546 -0.024727 -2.919260 1.009680 0.149495 1.903952 -1.072706 -0.048706 3.080497 0.967403 -0.116984 -1.548265 0.102489 0.020929 0.331783 0.000003 -0.000004 -0.000001 -0.000001 0.000000 0.000002 0.102489 0.020929 0.331783 0.000001 -0.000000 0.000005 -0.000000 -0.000000 0.000000 -0.102489 0.020929 0.331783 -0.000000 0.000000 0.000002 0.000000 0.000001 -0.000001 -0.102489 0.020929 0.331783 0.000001 -0.000001 -0.000001 0.000000 -0.000001 -0.000001 0.513403 0.000000 0.000000 -1.125875 0.000000 -0.000000 
0.000000 0.000000 0.000000 -0.000000 0.000000 -0.000000 -2.386354 0.019091 -6.454168 2.221501 0.374557 4.199043 -2.366516 -0.184981 6.810877 2.129977 -0.292841 -3.413430 0.102489 0.020929 0.331783 0.000003 -0.000004 -0.000001 -0.000001 0.000000 0.000002 0.102489 0.020929 0.331783 0.000001 -0.000000 0.000005 -0.000000 -0.000000 0.000000 -0.102489 0.020929 0.331783 -0.000000 0.000000 0.000002 0.000000 0.000001 -0.000001 -0.102489 0.020929 0.331783 0.000001 -0.000001 -0.000001 0.000000 -0.000001 -0.000001 1.131780 0.000000 0.000000 -2.482712 0.000000 -0.000000 
0.000000 0.000000 0.000000 -0.000000 0.000000 -0.000000 -4.047929 0.192250 -10.967967 3.751817 0.731441 7.117300 -4.002817 -0.481333 11.573616 3.601934 -0.571487 -5.784050 0.102489 0.020929 0.331783 0.000003 -0.000004 -0.000001 -0.000001 0.000000 0.000002 0.102489 0.020929 0.331783 0.000001 -0.000000 0.000005 -0.000000 -0.000000 0.000000 -0.102489 0.020929 0.331783 -0.000000 0.000000 0.000002 0.000000 0.000001 -0.000001 -0.102489 0.020929 0.331783 0.000001 -0.000001 -0.000001 0.000000 -0.000001 -0.000001 1.918525 0.000000 0.000000 -4.209768 0.000000 -0.000000 
0.000000 0.000000 0.000000 -0.000000 0.000000 -0.000000 -5.822301 0.525765 -15.838565 5.381784 1.203576 10.256885 -5.737318 -0.953217 16.710551 5.176707 -0.940235 -8.334474 0.102489 0.020929 0.331783 0.000003 -0.000004 -0.000001 -0.000001 0.000000 0.000002 0.102489 0.020929 0.331783 0.000001 -0.000000 0.000005 -0.000000 -0.000000 0.000000 -0.102489 0.020929 0.331783 -0.000000 0.000000 0.000002 0.000000 0.000001 -0.000001 -0.102489 0.020929 0.331783 0.000001 -0.000001 -0.000001 0.000000 -0.000001 -0.000001 2.767386 0.000000 0.000000 -6.073489 0.000000 -0.000000 
0.000000 0.000000 0.000000 -0.000000 0.000000 -0.000000 -7.433177 0.967326 -20.333342 6.866376 1.719625 13.151762 -7.298280 -1.526178 21.447789 6.619611 -1.343873 -10.687293 0.102489 0.020929 0.331783 0.000003 -0.000004 -0.000001 -0.000001 0.000000 0.000002 0.102489 0.020929 0.331783 0.000001 -0.000000 0.000005 -0.000000 -0.000000 0.000000 -0.102489 0.020929 0.331783 -0.000000 0.000000 0.000002 0.000000 0.000001 -0.000001 -0.102489 0.020929 0.331783 0.000001 -0.000001 -0.000001 0.000000 -0.000001 -0.000001 3.554128 0.000000 0.000000 -7.800496 0.000000 -0.000000 
0.000000 0.000000 0.000000 -0.000000 0.000000 -0.000000 -8.666709 1.399971 -23.841127 8.011757 2.176343 15.413058 -8.483272 -2.062843 25.141902 7.739912 -1.701873 -12.526628 0.102489 0.020929 0.331783 0.000003 -0.000004 -0.000001 -0.000001 0.000000 0.000002 0.102489 0.020929 0.331783 0.000001 -0.000000 0.000005 -0.000000 -0.000000 0.000000 -0.102489 0.020929 0.331783 -0.000000 0.000000 0.000002 0.000000 0.000001 -0.000001 -0.102489 0.020929 0.331783 0.000001 -0.000001 -0.000001 0.000000 -0.000001 -0.000001 4.172502 0.000000 0.000000 -9.157251 0.000000 -0.000000 
0.000000 0.000000 0.000000 -0.000000 0.000000 -0.000000 -9.417140 1.705616 -26.010400 8.714164 2.482698 16.813648 -9.199227 -2.433071 27.424950 8.430548 -1.942481 -13.666737 0.102489 0.020929 0.331783 0.000003 -0.000004 -0.000001 -0.000001 0.000000 0.000002 0.102489 0.020929 0.331783 0.000001 -0.000000 0.000005 -0.000000 -0.000000 0.000000 -0.102489 0.020929 0.331783 -0.000000 0.000000 0.000002 0.000000 0.000001 -0.000001 -0.102489 0.020929 0.331783 0.000001 -0.000001 -0.000001 0.000000 -0.000001 -0.000001 4.557563 0.000000 0.000000 -10.001689 0.000000 -0.000000 
0.000000 0.000000 0.000000 -0.000000 0.000000 -0.000000 -9.663906 1.813431 -26.730405 8.946279 2.588449 17.279021 -9.433778 -2.562322 28.182464 8.659430 -2.025629 -14.045727 0.102489 0.020929 0.331783 0.000003 -0.000004 -0.000001 -0.000001 0.000000 0.000002 0.102489 0.020929 0.331783 0.000001 -0.000000 0.000005 -0.000000 -0.000000 0.000000 -0.102489 0.020929 0.331783 -0.000000 0.000000 0.000002 0.000000 0.000001 -0.000001 -0.102489 0.020929 0.331783 0.000001 -0.000001 -0.000001 0.000000 -0.000001 -0.000001 4.685896 0.000000 0.000000 -10.283032 0.000000 0.000000 
0.000000 0.000000 0.000000 -0.000000 0.000000 -0.000000 -9.464334 1.725954 -26.147834 8.758513 2.502724 16.902461 -9.244122 -2.457503 27.569558 8.474253 -1.958223 -13.739060 0.102489 0.020929 0.331783 0.000003 -0.000004 -0.000001 -0.000001 0.000000 0.000002 0.102489 0.020929 0.331783 0.000001 -0.000000 0.000005 -0.000000 -0.000000 0.000000 -0.102489 0.020929 0.331783 -0.000000 0.000000 0.000002 0.000000 0.000001 -0.000001 -0.102489 0.020929 0.331783 0.000001 -0.000001 -0.000001 0.000000 -0.000001 -0.000001 4.582040 0.000000 0.000000 -10.055353 -0.000000 -0.000000 
0.000000 0.000000 0.000000 -0.000000 0.000000 -0.000000 -8.857017 1.474372 -24.388497 8.189441 2.251920 15.766296 -8.665203 -2.153535 25.718085 7.914345 -1.761195 -12.814103 0.102489 0.020929 0.331783 0.000003 -0.000004 -0.000001 -0.000001 0.000000 0.000002 0.102489 0.020929 0.331783 0.000001 -0.000000 0.000005 -0.000000 -0.000000 0.000000 -0.102489 0.020929 0.331783 -0.000000 0.000000 0.000002 0.000000 0.000001 -0.000001 -0.102489 0.020929 0.331783 0.000001 -0.000001 -0.000001 0.000000 -0.000001 -0.000001 4.269459 0.000000 0.000000 -9.369910 0.000000 -0.000000 
0.000000 0.000000 0.000000 -0.000000 0.000000 -0.000000 -7.849706 1.103998 -21.510550 7.252111 1.867608 13.910347 -7.699478 -1.697666 22.687814 6.996142 -1.459785 -11.304161 0.102489 0.020929 0.331783 0.000003 -0.000004 -0.000001 -0.000001 0.000000 0.000002 0.102489 0.020929 0.331783 0.000001 -0.000000 0.000005 -0.000000 -0.000000 0.000000 -0.102489 0.020929 0.331783 -0.000000 0.000000 0.000002 0.000000 0.000001 -0.000001 -0.102489 0.020929 0.331783 0.000001 -0.000001 -0.000001 0.000000 -0.000001 -0.000001 3.761159 0.000000 0.000000 -8.254810 0.000000 -0.000000 
0.000000 0.000000 0.000000 -0.000000 0.000000 -0.000000 -6.500399 0.695155 -17.720490 6.005758 1.410250 11.469004 -6.396113 -1.177282 18.694426 5.782030 -1.101799 -9.319450 0.102489 0.020929 0.331783 0.000003 -0.000004 -0.000001 -0.000001 0.000000 0.000002 0.102489 0.020929 0.331783 0.000001 -0.000000 0.000005 -0.000000 -0.000000 0.000000 -0.102489 0.020929 0.331783 -0.000000 0.000000 0.000002 0.000000 0.000001 -0.000001 -0.102489 0.020929 0.331783 0.000001 -0.000001 -0.000001 0.000000 -0.000001 -0.000001 3.096250 0.000000 0.000000 -6.795453 0.000000 -0.000000 
0.000000 0.000000 0.000000 -0.000000 0.000000 -0.000000 -4.938511 0.340177 -13.404175 4.569995 0.956332 8.688624 -4.875176 -0.697862 14.143396 4.391346 -0.747091 -7.060454 0.102489 0.020929 0.331783 0.000003 -0.000004 -0.000001 -0.000001 0.000000 0.000002 0.102489 0.020929 0.331783 0.000001 -0.000000 0.000005 -0.000000 -0.000000 0.000000 -0.102489 0.020929 0.331783 -0.000000 0.000000 0.000002 0.000000 0.000001 -0.000001 -0.102489 0.020929 0.331783 0.000001 -0.000001 -0.000001 0.000000 -0.000001 -0.000001 2.342955 0.000000 0.000000 -5.141611 0.000000 -0.000000 
0.000000 0.000000 0.000000 -0.000000 0.000000 -0.000000 -3.354218 0.103908 -9.079490 3.114033 0.572700 5.897917 -3.320927 -0.340814 9.581119 2.987835 -0.447558 -4.793601 0.102489 0.020929 0.331783 0.000003 -0.000004 -0.000001 -0.000001 0.000000 0.000002 0.102489 0.020929 0.331783 0.000001 -0.000000 0.000005 -0.000000 -0.000000 0.000000 -0.102489 0.020929 0.331783 -0.000000 0.000000 0.000002 0.000000 0.000001 -0.000001 -0.102489 0.020929 0.331783 0.000001 -0.000001 -0.000001 0.000000 -0.000001 -0.000001 1.589655 0.000000 0.000000 -3.487747 0.000000 -0.000000 
0.000000 0.000000 0.000000 -0.000000 0.000000 -0.000000 -1.948300 -0.004549 -5.268476 1.816464 0.293734 3.430490 -1.933421 -0.129931 5.559595 1.741166 -0.229716 -2.788981 0.102489 0.020929 0.331783 0.000003 -0.000004 -0.000001 -0.000001 0.000000 0.000002 0.102489 0.020929 0.331783 0.000001 -0.000000 0.000005 -0.000000 -0.000000 0.000000 -0.102489 0.020929 0.331783 -0.000000 0.000000 0.000002 0.000000 0.000001 -0.000001 -0.102489 0.020929 0.331783 0.000001 -0.000001 -0.000001 0.000000 -0.000001 -0.000001 0.924745 0.000000 0.000000 -2.028341 0.000000 -0.000000 
0.000000 0.000000 0.000000 -0.000000 0.000000 -0.000000 -0.875048 -0.024240 -2.366445 0.819166 0.118659 1.544142 -0.869746 -0.035086 2.497103 0.784804 -0.092871 -1.255767 0.102489 0.020929 0.331783 0.000003 -0.000004 -0.000001 -0.000001 0.000000 0.000002 0.102489 0.020929 0.331783 0.000001 -0.000000 0.000005 -0.000000 -0.000000 0.000000 -0.102489 0.020929 0.331783 -0.000000 0.000000 0.000002 0.000000 0.000001 -0.000001 -0.102489 0.020929 0.331783 0.000001 -0.000001 -0.000001 0.000000 -0.000001 -0.000001 0.416439 0.000000 0.000000 -0.913184 0.000000 -0.000000 
0.000000 0.000000 0.000000 -0.000000 0.000000 -0.000000 -0.217734 -0.009422 -0.589083 0.204410 0.027501 0.384929 -0.216609 -0.005173 0.621574 0.195792 -0.021539 -0.313108 0.102489 0.020929 0.331783 0.000003 -0.000004 -0.000001 -0.000001 0.000000 0.000002 0.102489 0.020929 0.331783 0.000001 -0.000000 0.000005 -0.000000 -0.000000 0.000000 -0.102489 0.020929 0.331783 -0.000000 0.000000 0.000002 0.000000 0.000001 -0.000001 -0.102489 0.020929 0.331783 0.000001 -0.000001 -0.000001 0.000000 -0.000001 -0.000001 0.103855 0.000000 0.000000 -0.227696 0.000000 -0.000000 
0.000000 0.000000 0.000000 -0.000000 0.000000 -0.000000 0.000002 -0.000002 -0.000002 -0.000000 0.000001 -0.000002 0.000002 0.000007 0.000001 -0.000000 -0.000000 -0.000000 0.102489 0.020929 0.331783 0.000003 -0.000004 -0.000001 -0.000001 0.000000 0.000002 0.102489 0.020929 0.331783 0.000001 -0.000000 0.000005 -0.000000 -0.000000 0.000000 -0.102489 0.020929 0.331783 -0.000000 0.000000 0.000002 0.000000 0.000001 -0.000001 -0.102489 0.020929 0.331783 0.000001 -0.000001 -0.000001 0.000000 -0.000001 -0.000001 -0.000002 -0.000000 0.000000 -0.000001 -0.000000 -0.000000 
